<?xml version="1.0" encoding="UTF-8"?>
<svg id="Calque_1" data-name="Calque 1" xmlns="http://www.w3.org/2000/svg" viewBox="0 0 1911.49 362.52">
  <defs>
    <style>
      .cls-1 {
        fill: none;
        stroke: #fff;
        stroke-miterlimit: 10;
        stroke-width: 8px;
      }

      .cls-2 {
        fill: #fff;
      }
    </style>
  </defs>
  <path class="cls-1" d="M275.55,36.36H58.51c-23.82,0-43.31,19.49-43.31,43.31v217.04c0,23.83,19.49,43.32,43.31,43.32h217.04c23.83,0,43.32-19.49,43.32-43.32V79.67c0-23.82-19.49-43.31-43.32-43.31ZM205.07,208.63h-119.8c1.54,7.27,6.01,12.91,13.42,16.93,7.4,4.02,17.19,6.03,29.34,6.03,9.02,0,17.19-1.38,24.53-4.14,7.34-2.76,13.03-6.66,17.08-11.69l31.34,13.73c-15.37,18.73-40.28,28.09-74.73,28.09-25.22,0-44.98-5.05-59.27-15.15-14.29-10.09-21.43-24.08-21.43-41.97s7.19-32.53,21.59-42.87c14.39-10.34,33.75-15.51,58.06-15.51s44.76,5.39,58.8,16.19c14.05,10.8,21.07,25.66,21.07,44.6v5.76ZM269.81,253.49h-41.19V97.85h41.19v155.64ZM152.93,170.79c-7.24-4.26-16.55-6.39-27.94-6.39s-20.38,2.08-27.4,6.24c-7.03,4.16-11.2,9.8-12.53,16.93h79.03v-.21c-.21-6.78-3.93-12.3-11.16-16.57Z"/>
  <g>
    <path class="cls-2" d="M512.71,217.96c-8.66,5.24-19.74,7.86-33.22,7.86-17.12,0-30.75-4.4-40.88-13.2-10.13-8.81-15.2-20.58-15.2-35.33s4.98-26.78,14.94-35.48c9.95-8.69,23.53-13.04,40.72-13.04,13.69,0,24.91,2.76,33.64,8.28,8.74,5.52,14.54,13.48,17.4,23.89l44.86-7.86c-5.03-17.82-16-31.79-32.91-41.92-16.91-10.13-37.77-15.2-62.57-15.2-19.78,0-37.39,3.46-52.83,10.38-15.44,6.91-27.43,16.59-35.95,29.03-8.53,12.44-12.79,26.62-12.79,42.55s4.05,30.4,12.16,42.56c8.11,12.15,19.71,21.55,34.8,28.19,15.09,6.64,32.7,9.96,52.82,9.96,24.81,0,45.6-4.72,62.37-14.15,16.77-9.44,28.33-22.82,34.69-40.15l-44.23-9.43c-3.22,10.13-9.15,17.82-17.82,23.06Z"/>
    <path class="cls-2" d="M728.54,157.8c-15.2-10.48-35.34-15.72-60.43-15.72s-45.21,5.24-60.37,15.72c-15.16,10.48-22.74,24.49-22.74,42.03s7.6,31.46,22.79,41.98c15.2,10.51,35.31,15.77,60.32,15.77,16.56,0,31.13-2.36,43.71-7.08,12.58-4.71,22.31-11.45,29.19-20.22,6.88-8.77,10.33-18.92,10.33-30.45,0-17.54-7.6-31.55-22.8-42.03ZM697.41,222.62c-7.37,5.7-17.14,8.55-29.3,8.55s-21.92-2.85-29.29-8.55c-7.37-5.69-11.06-13.29-11.06-22.79s3.69-17.1,11.06-22.8c7.37-5.69,17.14-8.54,29.29-8.54s21.93,2.85,29.3,8.54c7.37,5.7,11.06,13.3,11.06,22.8s-3.69,17.1-11.06,22.79Z"/>
    <path class="cls-2" d="M915.18,157.48c-10.24-10.27-25.14-15.4-44.71-15.4-13.55,0-25.22,2.49-35,7.49-9.79,5-17.16,12.18-22.12,21.54v-24.95h-40.56v107.33h41.19v-44.44c0-11.88,3.48-21.07,10.43-27.56,6.95-6.5,16.72-9.75,29.29-9.75s20.97,3.04,26.84,9.12c5.86,6.08,8.8,15.4,8.8,27.98v44.65h41.19v-50.83c0-19.85-5.12-34.9-15.35-45.18Z"/>
    <path class="cls-2" d="M1031.96,229.91c-11.6,0-20.93-2.81-27.99-8.44-7.06-5.62-10.58-13.05-10.58-22.27s3.44-16.39,10.32-21.7c6.88-5.31,16.3-7.96,28.25-7.96,9.85,0,17.97,1.73,24.36,5.19,6.4,3.45,10.68,8.4,12.84,14.83l43.5-5.87c-3.63-13.28-12.33-23.53-26.1-30.77-13.76-7.23-31.51-10.84-53.24-10.84-25.79,0-46.05,5.1-60.79,15.3-14.75,10.2-22.12,24.21-22.12,42.03s7.43,31.97,22.27,42.45c14.85,10.48,34.92,15.72,60.22,15.72,21.24,0,38.97-3.7,53.19-11.11,14.22-7.41,23.08-17.5,26.57-30.29l-43.29-6.5c-4.33,13.49-16.8,20.23-37.41,20.23Z"/>
    <path class="cls-2" d="M1133.7,97.43v33.01h43.49v-33.01h-43.49ZM1134.95,146.16v107.33h41.2v-107.33h-41.2Z"/>
    <path class="cls-2" d="M1357.34,202.87c0-18.94-7.02-33.8-21.07-44.6-14.04-10.8-33.64-16.19-58.8-16.19s-43.67,5.17-58.06,15.51c-14.4,10.34-21.6,24.63-21.6,42.87s7.15,31.88,21.44,41.97c14.29,10.1,34.04,15.15,59.27,15.15,34.45,0,59.36-9.36,74.73-28.09l-31.34-13.73c-4.05,5.03-9.75,8.93-17.08,11.69-7.34,2.76-15.51,4.14-24.53,4.14-12.16,0-21.94-2.01-29.35-6.03-7.4-4.02-11.87-9.66-13.41-16.93h119.8v-5.76ZM1316.36,187.57h-79.03c1.33-7.13,5.5-12.77,12.52-16.93,7.03-4.16,16.16-6.24,27.41-6.24s20.7,2.13,27.93,6.39c7.24,4.27,10.96,9.79,11.17,16.57v.21Z"/>
    <path class="cls-2" d="M1465.05,142.91c-12.3,0-22.78,3.17-31.44,9.49-8.67,6.32-14.5,14.83-17.5,25.52v-31.76h-36.27v107.33h41.19v-34.8c0-13.97,3.74-24.49,11.22-31.54,6.84-6.43,16.7-9.65,29.55-9.65,5.52,0,11.25.56,17.19,1.68v-35.11c-5.24-.77-9.88-1.16-13.94-1.16Z"/>
    <path class="cls-2" d="M1649.18,152.77v-25.68c-3.29-.56-6.74-.84-10.38-.84-9.29,0-16.98,1.76-23.06,5.29-6.08,3.53-10.06,8.68-11.95,15.46-11.04-3.28-24.7-4.92-40.98-4.92-22.85,0-40.54,3.19-53.08,9.59-12.55,6.39-18.82,15.49-18.82,27.3,0,6.5,1.96,12.26,5.87,17.29,3.91,5.04,9.54,9.16,16.88,12.37-8.81,1.96-15.59,5.1-20.34,9.44-4.75,4.33-7.12,9.64-7.12,15.93,0,4.61,1.53,8.7,4.61,12.26,3.07,3.56,7.33,6.39,12.78,8.49-6.7,1.61-11.63,3.93-14.77,6.97-3.15,3.04-4.72,6.94-4.72,11.69,0,8.94,6.03,15.51,18.08,19.7,12.05,4.19,30.83,6.29,56.34,6.29,31.37,0,54.2-3.23,68.49-9.69,14.29-6.47,21.43-16.76,21.43-30.87,0-10.76-3.7-18.73-11.1-23.9-7.41-5.17-19.08-7.79-35.01-7.86l-68.66-.21c-8.73,0-13.1-2.45-13.1-7.34,0-3,2.06-5.13,6.19-6.39,9.92,2.58,21.94,3.88,36.05,3.88,22.57,0,40.2-3.39,52.88-10.17s19.02-16.07,19.02-27.88c0-10.13-4.64-18.27-13.94-24.42,3.92-2.03,9.09-3.04,15.52-3.04,4.68,0,8.98.42,12.89,1.26ZM1525.08,258.21h72.95c10.48,0,15.72,3.07,15.72,9.22,0,3.5-1.52,6.22-4.56,8.18-3.04,1.95-8.26,3.37-15.67,4.24-7.4.88-17.92,1.31-31.55,1.31-16.42,0-28.35-1.12-35.79-3.35-7.44-2.24-11.16-6.05-11.16-11.43,0-3.21,1.5-6.01,4.51-8.38,1.11.14,2.97.21,5.55.21ZM1584.82,192.54c-5.24,3.25-12.57,4.88-22.01,4.88s-16.75-1.63-21.96-4.88c-5.2-3.25-7.8-7.77-7.8-13.57s2.56-9.97,7.7-12.94c5.14-2.97,12.49-4.46,22.06-4.46s17.12,1.49,22.22,4.46c5.1,2.97,7.65,7.28,7.65,12.94s-2.62,10.32-7.86,13.57Z"/>
    <path class="cls-2" d="M1670.11,97.43v33.01h43.49v-33.01h-43.49ZM1671.37,146.16v107.33h41.19v-107.33h-41.19Z"/>
    <path class="cls-2" d="M1877.77,157.8c-15.2-10.48-35.34-15.72-60.43-15.72s-45.21,5.24-60.37,15.72-22.75,24.49-22.75,42.03,7.6,31.46,22.8,41.98c15.2,10.51,35.31,15.77,60.32,15.77,16.56,0,31.13-2.36,43.71-7.08,12.58-4.71,22.31-11.45,29.19-20.22,6.88-8.77,10.32-18.92,10.32-30.45,0-17.54-7.6-31.55-22.79-42.03ZM1846.64,222.62c-7.38,5.7-17.14,8.55-29.3,8.55s-21.92-2.85-29.29-8.55c-7.38-5.69-11.06-13.29-11.06-22.79s3.68-17.1,11.06-22.8c7.37-5.69,17.13-8.54,29.29-8.54s21.92,2.85,29.3,8.54c7.37,5.7,11.05,13.3,11.05,22.8s-3.68,17.1-11.05,22.79Z"/>
  </g>
</svg>